<svg width="724" height="32" viewBox="0 0 724 32" fill="none" xmlns="http://www.w3.org/2000/svg">
    <g clip-path="url(#clip0_1867_104097)">
    <path d="M40.5961 5.0752H37.7031V26.1033H56.5545V23.7961H40.5961V5.0752Z" fill="#282828"/>
    <path d="M62.3557 5.0752H59.4551V26.1007H62.3557V5.0752Z" fill="#282828"/>
    <path d="M66.1201 5.0752V26.1033H69.0105V8.33645L86.6187 26.1033H89.7674V5.0752H86.8771V22.8727L69.2381 5.0752H66.1201Z" fill="#282828"/>
    <path d="M107.773 12.2372L116.347 5.0752H112.477L96.4236 18.7597V5.0752H93.5332V26.1033H96.4236V21.627L105.616 13.9688L113.758 26.1033H117.239L107.773 12.2372Z" fill="#282828"/>
    <path d="M29.0033 31.1776V29.7273H16.9379C14.3626 29.7316 11.8641 28.8512 9.86035 27.2334C11.8555 29.6429 14.0961 31.1776 18.2424 31.1776H29.0033Z" fill="#282828"/>
    <path d="M29.0039 28.2772V26.8269H15.0534C12.4189 26.8269 9.71265 25.8907 7.83008 24.333C9.8252 26.7425 11.9226 28.2772 16.0663 28.2772H29.0039Z" fill="#282828"/>
    <path d="M29.0032 25.3768V23.9265H12.8888C10.3579 23.9303 7.90543 23.048 5.95703 21.4326C7.95215 23.8421 10.0496 25.3768 14.1933 25.3768H29.0032Z" fill="#282828"/>
    <path d="M10.1496 21.0255V0H8.69673V18.4881C8.69605 19.2769 8.75677 20.0645 8.87834 20.8439C8.4847 20.7704 8.09534 20.6756 7.71196 20.56C7.40452 19.4365 7.24966 18.2768 7.25155 17.112V0H5.80125V15.7333C5.79926 17.2548 6.08748 18.7628 6.65045 20.1763C6.31538 20.0331 5.99053 19.877 5.67336 19.7031C4.80113 18.0563 4.34618 16.2207 4.34839 14.3572V0H2.90065V12.9785C2.89719 15.1771 3.54905 17.3268 4.77299 19.1532C3.33413 17.8646 2.29841 16.1875 1.79054 14.3239C1.56361 13.4337 1.44932 12.5185 1.45035 11.5998V0H2.54977e-05V10.1521C-0.00248629 11.3086 0.180596 12.4581 0.542315 13.5566C1.50662 16.5876 3.66033 18.9971 6.13889 20.5446C7.87755 21.7513 9.93179 22.4218 12.0475 22.4732H29.006V21.0255H10.1496Z" fill="#282828"/>
    </g>
    <defs>
    <clipPath id="clip0_1867_104097">
    <rect width="117.622" height="32" fill="white"/>
    </clipPath>
    </defs>
    </svg>